<svg width="41" height="40" viewBox="0 0 41 40" fill="none" xmlns="http://www.w3.org/2000/svg">
<circle cx="20.3138" cy="20.1408" r="19.7022" fill="#F14C4C"/>
<path d="M8.54394 25.8651V14.1637H12.3473L14.7116 21.9761L17.0245 14.1637H20.8792V25.8651H18.515V17.1961H18.2751L15.8252 25.5567H13.598L11.1481 17.1961H10.9082V25.8651H8.54394ZM23.0328 25.8651V14.1637H27.6928C28.4695 14.1637 29.1377 14.2608 29.6973 14.455C30.257 14.6491 30.691 14.9632 30.9994 15.3972C31.3192 15.8198 31.4791 16.3909 31.4791 17.1105C31.4791 17.6016 31.4277 18.0185 31.3249 18.3611C31.2335 18.6924 31.085 18.9779 30.8795 19.2177C30.6853 19.4462 30.4283 19.6575 30.1085 19.8516C30.4511 19.9773 30.7481 20.1486 30.9994 20.3656C31.2621 20.5712 31.462 20.851 31.599 21.2051C31.7361 21.5477 31.8046 22.0046 31.8046 22.5757C31.8046 23.2039 31.7075 23.7293 31.5133 24.1519C31.3192 24.5745 31.0394 24.9114 30.6739 25.1627C30.3198 25.414 29.9029 25.5967 29.4232 25.7109C28.9435 25.8137 28.4181 25.8651 27.847 25.8651H23.0328ZM25.3971 24.1176H27.6757C28.0755 24.1176 28.4067 24.0719 28.6694 23.9805C28.9435 23.8778 29.1491 23.7007 29.2861 23.4494C29.4346 23.1982 29.5089 22.8498 29.5089 22.4044C29.5089 22.0617 29.4518 21.7819 29.3375 21.5649C29.2233 21.3479 29.0748 21.188 28.8921 21.0852C28.7094 20.971 28.5038 20.891 28.2753 20.8453C28.0583 20.7996 27.8413 20.7768 27.6243 20.7768H25.3971V24.1176ZM25.3971 19.0978H27.6072C27.9955 19.0978 28.3096 19.0407 28.5494 18.9265C28.7893 18.8009 28.9663 18.6181 29.0806 18.3783C29.1948 18.127 29.2519 17.8129 29.2519 17.436C29.2519 16.8992 29.1091 16.5108 28.8236 16.271C28.5494 16.0311 28.1154 15.9112 27.5215 15.9112H25.3971V19.0978Z" fill="white"/>
</svg>
